<?xml version="1.0" standalone="no"?>
<!DOCTYPE svg PUBLIC "-//W3C//DTD SVG 20010904//EN"
 "http://www.w3.org/TR/2001/REC-SVG-20010904/DTD/svg10.dtd">
<svg version="1.0" xmlns="http://www.w3.org/2000/svg"
 width="1024.000000pt" height="1024.000000pt" viewBox="0 0 1024.000000 1024.000000"
 preserveAspectRatio="xMidYMid meet" fill="#6A3DE8" stroke="none">

<g transform="translate(0.000000,1024.000000) scale(0.100000,-0.100000)"
>
<path d="M4820 10229 c-1581 -93 -3027 -912 -3921 -2219 -941 -1375 -1155
-3122 -574 -4680 367 -983 1036 -1837 1905 -2431 1375 -941 3122 -1155 4680
-574 983 367 1837 1036 2431 1905 941 1375 1155 3122 574 4680 -549 1471
-1752 2612 -3255 3089 -588 187 -1227 266 -1840 230z m682 -1544 c163 -18 271
-36 451 -77 l137 -31 0 -1069 c0 -588 -3 -1067 -7 -1064 -5 2 -38 24 -74 49
-86 58 -251 137 -366 176 -408 137 -854 108 -1243 -82 -671 -327 -1032 -1070
-880 -1805 130 -628 636 -1133 1263 -1261 260 -54 495 -46 793 28 117 29 309
118 446 207 l67 43 3 -157 3 -157 508 -3 507 -2 0 2305 c0 1852 2 2305 13
2305 7 0 73 -46 147 -102 597 -450 1034 -1060 1262 -1763 36 -112 94 -334 107
-411 53 -309 65 -446 65 -689 -1 -472 -80 -890 -251 -1330 -43 -109 -153 -340
-198 -415 -18 -30 -41 -71 -52 -90 -128 -236 -419 -593 -671 -821 -111 -101
-356 -292 -459 -358 -174 -111 -495 -278 -598 -311 -22 -7 -44 -16 -50 -20
-39 -29 -475 -156 -624 -181 -282 -49 -434 -63 -681 -63 -464 0 -886 80 -1325
251 -109 43 -340 153 -415 198 -30 18 -71 41 -90 52 -236 128 -593 419 -821
671 -101 111 -292 356 -358 459 -111 174 -278 495 -311 598 -7 22 -16 45 -20
50 -29 39 -156 475 -181 624 -49 282 -63 434 -63 681 0 464 80 886 251 1325
43 109 153 340 198 415 18 30 41 71 52 90 128 236 419 593 671 821 111 101
356 292 459 358 174 111 495 278 598 311 22 7 45 16 50 20 39 29 475 156 624
181 173 30 239 39 361 49 74 6 155 12 180 14 84 7 387 -4 522 -19z"/>
</g>
</svg>
